{"title":"Wolf Creek S01E03 Salt Lake 720p HDTV HEVC 2CH x265","uid":15788359,"size":366185366,"categoryP":"video","categoryS":"hd___tv_shows","magnet":"?xt=urn:btih:db9b8fae0bb950367028ee36af2c01de2d475ac2&amp;dn=Wolf+Creek+S01E03+Salt+Lake+720p+HDTV+HEVC+2CH+x265&amp;tr=udp%3A%2F%2Ftracker.leechers-paradise.org%3A6969&amp;tr=udp%3A%2F%2Fzer0day.ch%3A1337&amp;tr=udp%3A%2F%2Fopen.demonii.com%3A1337&amp;tr=udp%3A%2F%2Ftracker.coppersurfer.tk%3A6969&amp;tr=udp%3A%2F%2Fexodus.desync.com%3A6969","seeders":7,"leechers":2,"uploader":"nayhtut","files":1,"time":1473354994,"description":"Source: Wolf Creek S01E03 Salt Lake 720p HDTV X264-BullRout (1 GB)\r\n\r\n\r\nComplete name                            : Wolf.Creek.S01E03.Salt.Lake.720p.HDTV.HEVC.2CH.x265.mkv\r\nFormat                                   : Matroska\r\nFormat version                           : Version 4 / Version 2\r\nFile size                                : 349 MiB\r\nDuration                                 : 49mn 59s\r\nOverall bit rate                         : 977 Kbps\r\nWriting application                      : Lavf57.25.100\r\nWriting library                          : Lavf57.25.100\r\n\r\nVideo\r\n\r\nID                                       : 1\r\nFormat                                   : V_MPEGH/ISO/HEVC\r\nCodec ID                                 : V_MPEGH/ISO/HEVC\r\nDuration                                 : 49mn 59s\r\nBit rate                                 : 765 Kbps\r\nWidth                                    : 1 280 pixels\r\nHeight                                   : 640 pixels\r\nDisplay aspect ratio                     : 2.000\r\nFrame rate                               : 25.000 fps\r\nBits/(Pixel*Frame)                       : 0.037\r\nStream size                              : 274 MiB (78%)\r\nWriting library                          : Lavc57.48.101 libx265\r\nDefault                                  : Yes\r\nForced                                   : No\r\nDURATION                                 : 00:49:59.891000000\r\n\r\nAudio\r\n\r\nID                                       : 2\r\nFormat                                   : AC-3\r\nFormat/Info                              : Audio Coding 3\r\nMode extension                           : CM (complete main)\r\nFormat settings, Endianness              : Big\r\nCodec ID                                 : A_AC3\r\nDuration                                 : 49mn 59s\r\nBit rate mode                            : Constant\r\nBit rate                                 : 192 Kbps\r\nChannel(s)                               : 2 channels\r\nChannel positions                        : Front: L R\r\nSampling rate                            : 48.0 KHz\r\nBit depth                                : 16 bits\r\nCompression mode                         : Lossy\r\nStream size                              : 68.7 MiB (20%)\r\nWriting library                          : Lavc57.24.102 ac3\r\nDefault                                  : Yes\r\nForced                                   : No\r\nDURATION                                 : 00:49:59.871000000","torrent":{"xt":"urn:btih:db9b8fae0bb950367028ee36af2c01de2d475ac2","amp;dn":"Wolf+Creek+S01E03+Salt+Lake+720p+HDTV+HEVC+2CH+x265","amp;tr":["udp%3A%2F%2Ftracker.leechers-paradise.org%3A6969","udp%3A%2F%2Fzer0day.ch%3A1337","udp%3A%2F%2Fopen.demonii.com%3A1337","udp%3A%2F%2Ftracker.coppersurfer.tk%3A6969","udp%3A%2F%2Fexodus.desync.com%3A6969"],"infoHash":"db9b8fae0bb950367028ee36af2c01de2d475ac2","infoHashBuffer":{"type":"Buffer","data":[219,155,143,174,11,185,80,54,112,40,238,54,175,44,1,222,45,71,90,194]},"announce":[],"urlList":[]}}